<svg xmlns="http://www.w3.org/2000/svg" fill="none" viewBox="0 0 40 40" xmlns:xlink="http://www.w3.org/1999/xlink"><g clip-path="url(#a)"><path fill="currentColor" d="M15.223 39.794h9.55c5.44 0 8.128-2.792 8.081-8.377-.062-6.379-.093-11.012-.25-14.487-.453-10.218-3.282-13.217-12.598-13.217S7.845 6.712 7.39 16.93c-.156 3.475-.187 8.108-.25 14.487-.047 5.585 2.642 8.377 8.082 8.377m-.454-6.299c-1.344 0-2.204-.889-2.204-2.221v-8.188c0-1.348.86-2.237 2.204-2.237h10.473c1.329 0 2.188.889 2.188 2.237v8.188c0 1.332-.86 2.221-2.188 2.221zm-2.204-6.537H27.43V25.07H12.565zM20.005 0c-3 0-5.11 2.063-5.11 4.871h2.203c0-1.539 1.188-2.634 2.908-2.634 1.703 0 2.907 1.095 2.907 2.634h2.204C25.117 2.063 22.991 0 20.006 0"/></g><defs><clipPath id="a"><path fill="currentColor" d="M0 0h40v40H0z"/></clipPath></defs></svg>