<svg xmlns="http://www.w3.org/2000/svg" fill="none" viewBox="0 0 40 40"><path fill="currentColor" d="M10.85 37.305h21.68c.737 0 1.34-.586 1.34-1.34 0-.586-.402-1.105-.938-1.289-2.11-.837-2.545-3.566-.469-5.658.636-.636 1.406-1.457 1.406-3.13V6.684c0-3.482-1.724-5.256-5.19-5.256H10.902c-3.466 0-5.19 1.757-5.19 5.256v25.447c0 3.448 1.741 5.173 5.14 5.173m.151-2.696c-1.69 0-2.595-.904-2.595-2.494 0-1.507 1.072-2.478 2.746-2.478H28.33c.218 0 .419-.016.586-.05-.787 1.741-.653 3.583.234 5.022zm-.502-7.516a.97.97 0 0 1-.954-.971V4.978c0-.536.435-.955.954-.955s.97.419.97.955v21.144c0 .535-.451.97-.97.97"/></svg>