<svg xmlns="http://www.w3.org/2000/svg" fill="none" viewBox="0 0 40 40"><path fill="currentColor" d="m6.674 29.524.468 1.893c.593 2.46 1.887 3.722 4.46 3.722h16.796c2.588 0 3.867-1.23 4.475-3.722l.468-1.893zm-.514-2.161h27.71l2.932-12.146-1.279-.741-7.189 5.3c-.53.378-.889.236-1.185-.19L20.382 9.24l-.748-.032-6.83 10.427c-.266.41-.578.536-1.108.157l-7.049-5.205-1.497.394zm-2.433-8.991c2.059 0 3.712-1.688 3.712-3.786 0-2.05-1.653-3.754-3.712-3.754C1.67 10.832 0 12.52 0 14.586c0 2.098 1.684 3.786 3.727 3.786m16.28-6.562c2.044 0 3.712-1.688 3.712-3.77 0-2.05-1.668-3.754-3.711-3.754-2.074 0-3.727 1.688-3.727 3.754 0 2.082 1.668 3.77 3.727 3.77m16.266 6.562c2.043 0 3.727-1.688 3.727-3.786 0-2.066-1.669-3.754-3.727-3.754-2.043 0-3.712 1.704-3.712 3.754 0 2.098 1.67 3.786 3.712 3.786"/></svg>