<svg xmlns="http://www.w3.org/2000/svg" fill="none" viewBox="0 0 40 40"><path fill="currentColor" fill-rule="evenodd" d="m19.233 37.252.118.067.046.026c.372.204.833.203 1.204 0l.048-.026.118-.067c.1-.059.245-.144.425-.255.362-.223.873-.551 1.482-.982a32.6 32.6 0 0 0 4.47-3.803c3.24-3.317 6.606-8.302 6.606-14.712 0-7.594-6.156-13.75-13.75-13.75S6.25 9.906 6.25 17.5c0 6.41 3.366 11.395 6.606 14.712a32.6 32.6 0 0 0 4.47 3.803c.61.431 1.12.76 1.482.982q.272.166.425.255M20 22.5a5 5 0 1 0 0-10 5 5 0 0 0 0 10" clip-rule="evenodd"/></svg>