<svg xmlns="http://www.w3.org/2000/svg" fill="none" viewBox="0 0 40 40" xmlns:xlink="http://www.w3.org/1999/xlink"><g clip-path="url(#a)"><path fill="currentColor" d="M15.058 29.955c5.67-1.56 8.095-6.041 6.497-12.082l-2.15-8.212c-.587-2.205-2.012-3.003-4.209-2.416L3.801 10.33c-2.207.61-3.024 2.018-2.437 4.27l2.138 8.2c1.576 6.029 5.888 8.703 11.556 7.155m-1.08-4.2c-2.404.634-4.738-.199-5.968-2.193-.242-.364-.035-.727.425-.692 1.53.129 3.346-.141 4.657-.505 1.288-.34 2.967-1.02 4.243-1.923.38-.282.76-.082.736.398-.08 2.347-1.679 4.235-4.093 4.916M8.182 18.05c-.862.246-.977.832-1.345.891-.173.035-.38-.164-.483-.504-.276-.997.345-2.065 1.334-2.311 1-.246 2.024.352 2.277 1.314.103.352.011.621-.173.692-.425.152-.828-.294-1.61-.082m7.014-1.936c-.862.258-.977.833-1.345.88-.172.035-.38-.164-.483-.493-.276-.985.345-2.064 1.334-2.31a1.854 1.854 0 0 1 2.277 1.313c.103.364.011.622-.173.692-.414.153-.828-.305-1.61-.082m22.17-2.745L25.982 10.26c-2.024-.552-3.45.058-4.036 1.888l-.138.505 1.265 4.81c1.265 4.797.23 8.856-2.714 11.483 1.127 1.9 3.128 3.32 5.773 4.035 5.645 1.537 9.934-1.138 11.521-7.167l2.173-8.188c.575-2.217-.253-3.66-2.46-4.258m-11.59 7.109c-.794-.2-1.266-1.02-1.047-1.854.218-.809 1.023-1.29 1.816-1.067s1.265 1.056 1.058 1.865a1.474 1.474 0 0 1-1.828 1.056m6.749 1.842c-.782-.212-1.254-1.044-1.035-1.866a1.45 1.45 0 0 1 1.805-1.055c.805.199 1.265 1.032 1.058 1.853-.218.81-1.023 1.29-1.828 1.067m-4.841 4.504c-1.196-.34-2.346-.352-3.818-.024-.46.106-.736-.281-.494-.668.989-1.584 2.99-2.24 4.933-1.69 2.012.517 3.38 2.089 3.45 3.966.022.469-.403.668-.748.352-1.138-1.056-2.116-1.62-3.323-1.936"/></g><defs><clipPath id="a"><path fill="currentColor" d="M0 0h40v40H0z"/></clipPath></defs></svg>