<svg xmlns="http://www.w3.org/2000/svg" fill="none" viewBox="0 0 40 40"><path fill="currentColor" d="M0 20.693c0 2.87 1.989 4.447 4.227 4.447.939 0 1.643-.268 2.486-.803.787-.492 1.353-.197 1.353.493v5.206c0 2.772 1.437 4.193 4.185 4.193h3.688c.663 0 .953-.562.484-1.364-.539-.859-.801-1.576-.801-2.533 0-2.28 1.56-4.306 4.378-4.306s4.365 2.026 4.365 4.306c0 .957-.263 1.674-.788 2.533-.47.801-.193 1.364.484 1.364h3.688c2.748 0 4.185-1.42 4.185-4.193V24.83c0-.69.566-.985 1.34-.492.856.534 1.56.802 2.486.802 2.251 0 4.24-1.576 4.24-4.447 0-2.884-1.989-4.46-4.24-4.46-.926 0-1.63.267-2.486.802-.774.492-1.34.197-1.34-.493v-5.206c0-2.758-1.437-4.193-4.185-4.193H24.06c-.677 0-.953.577-.484 1.379.525.858.788 1.576.788 2.533 0 2.28-1.547 4.305-4.365 4.305s-4.379-2.026-4.379-4.305c0-.957.263-1.675.802-2.533.47-.802.18-1.38-.484-1.38H12.25c-2.748 0-4.185 1.436-4.185 4.194v5.206c0 .69-.566.985-1.353.493-.843-.535-1.547-.802-2.486-.802-2.238 0-4.227 1.576-4.227 4.46"/></svg>