<svg xmlns="http://www.w3.org/2000/svg" fill="none" viewBox="0 0 40 40"><path fill="currentColor" d="M19.405 36.657c.268 0 .686-.1 1.105-.318 9.526-4.989 12.59-7.483 12.59-13.493V10.223c0-1.724-.737-2.277-2.144-2.863-1.958-.803-8.22-3.08-10.161-3.75a4.4 4.4 0 0 0-1.39-.234c-.469 0-.937.1-1.373.234-1.958.637-8.22 2.964-10.178 3.75-1.39.57-2.143 1.139-2.143 2.863v12.623c0 6.01 3.231 8.22 12.59 13.493.434.235.836.318 1.104.318m-7.55-16.088c0-.2.1-.452.284-.67L21.6 8.03c.72-.904 1.924-.301 1.49.82l-3.115 8.371h5.843c.452 0 .787.318.787.77 0 .201-.1.452-.285.67l-9.458 11.87c-.72.903-1.909.3-1.49-.804l3.13-8.388h-5.86c-.434 0-.786-.318-.786-.77"/></svg>