<svg xmlns="http://www.w3.org/2000/svg" fill="none" viewBox="0 0 40 40"><path fill="currentColor" d="M12.584 36.25c15.09 0 23.347-12.506 23.347-23.348 0-.351-.008-.71-.024-1.062A16.7 16.7 0 0 0 40 7.59a16.2 16.2 0 0 1-4.71 1.29 8.25 8.25 0 0 0 3.608-4.539 16.5 16.5 0 0 1-5.209 1.992 8.217 8.217 0 0 0-13.99 7.482A23.3 23.3 0 0 1 2.79 5.248 8.216 8.216 0 0 0 5.326 16.2a8.2 8.2 0 0 1-3.718-1.023v.101a8.2 8.2 0 0 0 6.585 8.047 8.16 8.16 0 0 1-3.703.14 8.22 8.22 0 0 0 7.663 5.704A16.46 16.46 0 0 1 0 32.563a23.3 23.3 0 0 0 12.584 3.686"/></svg>