<svg xmlns="http://www.w3.org/2000/svg" fill="none" viewBox="0 0 40 40"><path fill="currentColor" d="M32.662 35.296c.753 0 1.373-.603 1.373-1.34a1.38 1.38 0 0 0-1.373-1.372h-2.043v-11.1c0-6.11-4.704-10.831-10.814-10.831-6.094 0-10.798 4.72-10.798 10.831v11.1H6.93c-.737 0-1.323.62-1.323 1.372 0 .737.586 1.34 1.323 1.34zM21.21 21.535v11.049h-2.78v-11.05c0-.77.604-1.406 1.374-1.406s1.406.637 1.406 1.407M4.637 22.69c.787 0 1.473-.653 1.473-1.423 0-.804-.686-1.457-1.473-1.457H1.423c-.77 0-1.423.67-1.423 1.457 0 .753.653 1.423 1.423 1.423zM8.07 11.557c.553.552 1.473.57 2.026 0a1.43 1.43 0 0 0 0-2.026l-2.26-2.277c-.536-.569-1.473-.569-2.043 0a1.445 1.445 0 0 0 0 2.026zm10.296-5.458c0 .787.653 1.457 1.44 1.457.803 0 1.456-.67 1.456-1.457V2.885a1.48 1.48 0 0 0-1.456-1.456c-.787 0-1.44.67-1.44 1.456zm11.133 3.432a1.43 1.43 0 0 0 0 2.026 1.43 1.43 0 0 0 2.025 0l2.294-2.277a1.445 1.445 0 0 0 0-2.026c-.586-.569-1.473-.569-2.026 0zM38.17 22.69c.786 0 1.456-.67 1.456-1.423a1.48 1.48 0 0 0-1.456-1.457h-3.215c-.77 0-1.44.653-1.44 1.457 0 .77.67 1.423 1.44 1.423z"/></svg>